<?xml version="1.0" encoding="UTF-8"?>
<svg id="a" data-name="Layer 1" xmlns="http://www.w3.org/2000/svg" viewBox="0 0 1024 1024">
  <defs>
    <style>
      .b {
        fill: #fff;
      }

      .c {
        fill: #2a2d7c;
        stroke: #231f20;
        stroke-miterlimit: 10;
      }
    </style>
  </defs>
  <rect class="c" x=".19" y="-.25" width="1024" height="1024"/>
  <g>
    <path class="b" d="m286.59,569.26c6.89,0,16.43-5.3,20.14-7.42,1.06-.53,1.59-.53,2.65-.53,2.12,0,3.71,1.06,4.77,2.65l16.43,50.35c1.59,3.71,1.06,6.89-1.59,8.48-14.84,11.66-37.63,16.96-56.18,16.96-46.11,0-73.67-32.86-73.14-85.86v-108.12h-31.27c-3.18,0-5.3-2.12-5.3-4.77v-54.06c0-3.18,2.12-5.3,5.3-5.3h31.27l.53-75.79c0-3.18,1.59-5.3,4.77-5.3h57.77c3.18,0,5.3,2.12,5.3,5.3v75.79h47.7c3.18,0,5.3,2.12,5.3,5.3v54.06c0,2.65-2.12,4.77-5.3,4.77h-47.7v68.37c0,42.4,2.12,55.12,18.55,55.12Z"/>
    <path class="b" d="m465.73,569.26c6.89,0,16.43-5.3,20.14-7.42,1.06-.53,1.59-.53,2.65-.53,2.12,0,3.71,1.06,4.77,2.65l16.43,50.35c1.59,3.71,1.06,6.89-1.59,8.48-14.84,11.66-37.63,16.96-56.18,16.96-46.11,0-73.67-32.86-73.14-85.86v-108.12h-31.27c-3.18,0-5.3-2.12-5.3-4.77v-54.06c0-3.18,2.12-5.3,5.3-5.3h31.27l.53-75.79c0-3.18,1.59-5.3,4.77-5.3h57.77c3.18,0,5.3,2.12,5.3,5.3v75.79h47.7c3.18,0,5.3,2.12,5.3,5.3v54.06c0,2.65-2.12,4.77-5.3,4.77h-47.7v68.37c0,42.4,2.12,55.12,18.55,55.12Z"/>
    <path class="b" d="m730.73,413.97l10.07-27.03c1.06-4.24,3.18-5.3,6.36-5.3h40.81c3.18,0,5.3,2.12,5.3,5.3l.53,237.97c0,82.15-54.59,136.21-135.15,136.21-49.82-.53-85.33-15.9-103.35-27.03-3.18-1.59-4.24-4.77-2.65-8.48l24.91-50.88c1.06-1.59,2.65-2.65,4.77-2.65,1.06,0,1.59,0,2.65.53,13.25,7.42,40.28,18.02,69.43,19.61,46.11-.53,69.96-27.56,69.96-69.96v-10.6c-15.9,18.02-39.22,29.15-67.84,29.15-79.5,0-129.85-53-129.85-131.97s50.88-133.03,127.73-133.03c33.39,0,59.36,13.78,76.32,38.16Zm-72.61,157.41c39.22,0,65.72-25.44,65.72-63.07s-25.97-63.6-65.72-63.6c-37.63,0-62.54,25.44-62.54,63.6s24.91,63.07,62.54,63.07Z"/>
    <path class="b" d="m891.84,560.78c23.32,0,39.22,16.43,39.22,40.28s-16.43,39.22-39.22,39.22-39.22-16.43-39.22-39.22c0-24.38,15.37-39.75,39.22-40.28Z"/>
  </g>
</svg>