<?xml version="1.0" encoding="UTF-8"?><svg id="Layer_2" xmlns="http://www.w3.org/2000/svg" viewBox="0 0 77.88 59.65"><defs><style>.cls-1{fill:#fff;}</style></defs><g id="Layer_1-2"><g><g><g><path class="cls-1" d="m37.96,46.48c-2.66,0-5.21-.6-7.58-1.78-.59-.29-.83-1.01-.54-1.6.29-.59,1.01-.83,1.6-.54,2.03,1.01,4.23,1.53,6.52,1.53,2.93,0,5.76-.86,8.19-2.5.55-.37,1.29-.22,1.65.32.37.55.23,1.29-.32,1.66-2.82,1.9-6.11,2.91-9.52,2.91Z"/><path class="cls-1" d="m53.79,30.65c-.66,0-1.19-.53-1.19-1.19,0-8.07-6.57-14.64-14.64-14.64s-14.64,6.57-14.64,14.64c0,.66-.53,1.19-1.19,1.19s-1.19-.53-1.19-1.19c0-9.39,7.64-17.03,17.03-17.03s17.03,7.64,17.03,17.03c0,.66-.53,1.19-1.19,1.19Z"/><path class="cls-1" d="m38.06,40.29c-4.78,0-8.67-3.89-8.67-8.67,0-.66.53-1.19,1.19-1.19h14.96c.66,0,1.19.53,1.19,1.19,0,4.78-3.89,8.67-8.67,8.67Zm-6.18-7.48c.56,2.9,3.12,5.1,6.18,5.1s5.62-2.2,6.18-5.1h-12.35Z"/><path class="cls-1" d="m33.45,27.9c-.66,0-1.19-.53-1.19-1.19,0-.34-.28-.61-.61-.61s-.61.28-.61.61c0,.66-.53,1.19-1.19,1.19s-1.19-.53-1.19-1.19c0-1.65,1.35-3,3-3s3,1.35,3,3c0,.66-.53,1.19-1.19,1.19Z"/><path class="cls-1" d="m46.15,27.9c-.66,0-1.19-.53-1.19-1.19,0-.34-.28-.61-.61-.61s-.61.28-.61.61c0,.66-.53,1.19-1.19,1.19s-1.19-.53-1.19-1.19c0-1.65,1.35-3,3-3s3,1.35,3,3c0,.66-.53,1.19-1.19,1.19Z"/></g><g><path class="cls-1" d="m63.51,57.95c-1.67,0-3.35-.3-4.97-.89-7.44-2.74-11.26-11.02-8.53-18.45,1.33-3.6,3.98-6.48,7.46-8.09,3.49-1.61,7.39-1.77,10.99-.44,3.6,1.33,6.48,3.98,8.09,7.46,1.61,3.49,1.77,7.39.44,10.99-1.33,3.6-3.98,6.48-7.46,8.09-1.92.89-3.97,1.33-6.02,1.33Zm-.01-26.38c-1.71,0-3.42.37-5.02,1.11-2.91,1.34-5.12,3.74-6.22,6.74-2.28,6.21.91,13.11,7.11,15.39,3.01,1.11,6.26.97,9.17-.37,2.91-1.34,5.12-3.74,6.22-6.74,2.28-6.21-.91-13.11-7.11-15.39-1.35-.5-2.75-.74-4.15-.74Z"/><path class="cls-1" d="m60.77,41.32c-.14,0-.28-.02-.41-.07-.62-.23-.93-.91-.71-1.53.06-.16-.02-.34-.19-.4-.16-.06-.34.02-.4.19-.23.62-.91.93-1.53.71-.62-.23-.93-.91-.71-1.53.51-1.39,2.07-2.11,3.46-1.6,1.4.51,2.11,2.07,1.6,3.46-.18.48-.63.78-1.12.78Z"/><path class="cls-1" d="m70.69,44.97c-.14,0-.28-.02-.41-.07-.62-.23-.93-.91-.71-1.53.06-.16-.02-.34-.19-.4-.16-.06-.34.02-.4.19-.23.62-.91.93-1.53.71-.62-.23-.93-.91-.71-1.53.51-1.39,2.07-2.11,3.46-1.6,1.4.51,2.11,2.07,1.6,3.46-.18.48-.63.78-1.12.78Z"/></g><g><path class="cls-1" d="m14.36,59.65c-2.15,0-4.29-.49-6.28-1.46-3.45-1.68-6.05-4.6-7.3-8.23-2.59-7.49,1.4-15.69,8.89-18.28,7.49-2.59,15.69,1.4,18.28,8.89,1.25,3.63,1.02,7.53-.66,10.98-1.68,3.45-4.6,6.05-8.23,7.3-1.54.53-3.13.8-4.71.8Zm0-26.37c-1.3,0-2.61.21-3.91.66-6.25,2.16-9.58,9-7.42,15.25,1.05,3.03,3.21,5.47,6.09,6.87,2.88,1.4,6.13,1.6,9.16.55,3.03-1.05,5.47-3.21,6.87-6.09,1.4-2.88,1.6-6.13.55-9.16-1.71-4.96-6.37-8.08-11.34-8.08Z"/><path class="cls-1" d="m15.07,54.36c-2.17,0-4.3-.95-5.73-2.68-.42-.51-.35-1.26.16-1.68.51-.42,1.26-.35,1.68.16,1.33,1.6,3.55,2.22,5.52,1.54,1.98-.68,3.34-2.55,3.39-4.65.01-.66.56-1.18,1.22-1.16.66.01,1.18.56,1.16,1.22-.07,3.09-2.08,5.84-5,6.85-.79.27-1.6.4-2.41.4Z"/><path class="cls-1" d="m7.24,46.51c-.49,0-.96-.31-1.13-.8-.49-1.41.26-2.94,1.67-3.43.68-.24,1.41-.19,2.06.12.65.31,1.13.86,1.37,1.54.21.62-.12,1.3-.74,1.52-.62.21-1.3-.12-1.52-.74-.03-.1-.11-.15-.16-.18-.05-.03-.14-.05-.24-.01-.16.06-.25.23-.19.4.21.62-.12,1.3-.74,1.52-.13.04-.26.07-.39.07Z"/><path class="cls-1" d="m17.23,43.05c-.49,0-.96-.31-1.13-.8-.49-1.41.26-2.94,1.67-3.43.68-.24,1.41-.19,2.06.12.65.31,1.13.86,1.37,1.54.21.62-.12,1.3-.74,1.52-.62.22-1.3-.12-1.52-.74-.03-.1-.11-.15-.16-.18-.05-.03-.14-.05-.24-.01-.16.06-.25.23-.19.4.21.62-.12,1.3-.74,1.52-.13.04-.26.07-.39.07Z"/></g><path class="cls-1" d="m60.6,52.58c-.42,0-.84-.08-1.24-.24-1.94-.79-2.76-3.28-1.84-5.55.92-2.27,3.25-3.48,5.19-2.69,1.94.79,2.76,3.28,1.84,5.55-.73,1.8-2.35,2.93-3.95,2.93Zm.85-6.34c-.64,0-1.37.58-1.72,1.45-.42,1.04-.18,2.15.53,2.44.71.29,1.66-.34,2.08-1.38h0c.42-1.04.18-2.15-.53-2.44-.12-.05-.24-.07-.37-.07Z"/></g><path class="cls-1" d="m14.01,9.38c-.43,0-.84-.23-1.05-.63l-3.6-6.77c-.31-.58-.09-1.3.49-1.61.58-.31,1.3-.09,1.61.49l3.6,6.77c.31.58.09,1.3-.49,1.61-.18.09-.37.14-.56.14Z"/><path class="cls-1" d="m23.69,9.56c-.1,0-.19-.01-.29-.04-.64-.16-1.03-.81-.87-1.45l1.8-7.18c.16-.64.81-1.03,1.45-.87.64.16,1.03.81.87,1.45l-1.8,7.18c-.14.54-.62.9-1.16.9Z"/><path class="cls-1" d="m8.66,17.46c-.13,0-.27-.02-.41-.07l-6.96-2.52c-.62-.22-.94-.91-.71-1.53.22-.62.91-.94,1.53-.71l6.96,2.52c.62.22.94.91.71,1.53-.18.48-.63.79-1.12.79Z"/><path class="cls-1" d="m63.38,14.26c-.19,0-.39-.05-.57-.14-.58-.31-.79-1.04-.48-1.62l3.65-6.74c.31-.58,1.04-.79,1.62-.48.58.31.79,1.04.48,1.62l-3.65,6.74c-.22.4-.63.62-1.05.62Z"/><path class="cls-1" d="m68.42,21.78c-.49,0-.95-.31-1.12-.79-.22-.62.11-1.3.73-1.52l6.98-2.47c.62-.22,1.3.11,1.52.73.22.62-.11,1.3-.73,1.52l-6.98,2.47c-.13.05-.27.07-.4.07Z"/><path class="cls-1" d="m53.44,13.8c-.54,0-1.02-.37-1.16-.91l-1.75-7.19c-.16-.64.24-1.28.88-1.44.64-.16,1.28.24,1.44.88l1.75,7.19c.16.64-.24,1.28-.88,1.44-.09.02-.19.03-.28.03Z"/><path class="cls-1" d="m13.55,20.5c-.66,0-1.19-.53-1.19-1.19,0-4.3,3.5-7.79,7.79-7.79,1.05,0,2.07.21,3.03.61.61.26.89.96.63,1.56-.26.61-.96.89-1.56.63-.67-.28-1.37-.42-2.11-.42-2.98,0-5.41,2.43-5.41,5.41,0,.66-.53,1.19-1.19,1.19Z"/></g></g></svg>