<?xml version="1.0" encoding="UTF-8"?><svg id="Layer_2" xmlns="http://www.w3.org/2000/svg" viewBox="0 0 74.82 70.79"><defs><style>.cls-1{fill:#fff;}</style></defs><g id="Layer_1-2"><g><g><g><g><path class="cls-1" d="m46.38,40.71c-.33,0-.66-.15-.88-.43-.38-.49-.29-1.19.19-1.57.06-.04,1.42-1.11,3.55-2.18,2.12-1.07,3.79-1.54,3.86-1.56.59-.17,1.21.18,1.38.78.17.59-.18,1.21-.78,1.38-.02,0-1.54.44-3.45,1.4-1.93.97-3.17,1.93-3.18,1.94-.2.16-.45.24-.69.24Z"/><path class="cls-1" d="m43.27,59.66c-.18,0-.37-.05-.54-.14-1.15-.64-1.98-1.98-1.96-3.19,0-.79-.08-1.65-.21-2.85-.07-.68-.15-1.46-.24-2.4-.05-.61.4-1.16,1.01-1.21.61-.06,1.16.4,1.21,1.01.08.92.16,1.69.23,2.36.13,1.27.23,2.19.22,3.1,0,.31.32.93.82,1.21.54.3.73.98.43,1.52-.2.37-.58.57-.98.57Z"/><path class="cls-1" d="m52.94,62.35c-.95,0-1.94-.06-2.97-.22-.61-.09-1.03-.66-.94-1.27.09-.61.66-1.03,1.27-.94,5.48.82,10.09-1.27,10.14-1.29.03-.01,4.16-2.05,6.74-6.86.29-.54.97-.75,1.51-.46.54.29.75.97.46,1.51-2.94,5.48-7.57,7.73-7.76,7.82-.18.09-3.71,1.69-8.45,1.69Z"/><path class="cls-1" d="m70.42,46.54s-.07,0-.1,0c-.61-.06-1.07-.6-1.01-1.21.03-.36.05-.72.06-1.09,0-.39-.16-.72-.47-.95-1.2-.87-3.04-2.26-5.01-4-.46-.41-.51-1.11-.1-1.58.41-.46,1.11-.51,1.58-.1,2,1.77,3.89,3.18,4.84,3.87.91.65,1.41,1.67,1.39,2.79,0,.42-.03.84-.07,1.25-.05.58-.54,1.02-1.11,1.02Z"/><path class="cls-1" d="m64.4,40.76c-.06,0-.12,0-.18-.02-.61-.1-1.02-.67-.92-1.28,0-.06.72-4.87-2.66-9.32-1.47.86-4.67,3.04-6.23,6.37-.26.56-.93.8-1.48.54-.56-.26-.8-.93-.54-1.48,2.39-5.12,7.82-7.75,8.05-7.86.45-.22.99-.1,1.32.28,4.73,5.45,3.78,11.58,3.74,11.83-.09.55-.56.94-1.1.94Z"/><path class="cls-1" d="m55.34,38.14c-.09,0-.17-.01-.26-.03-.6-.14-.97-.75-.83-1.35,1.6-6.7,5.98-8.95,6.17-9.04.55-.27,1.22-.05,1.5.5.27.55.05,1.22-.5,1.49-.16.08-3.65,1.94-4.99,7.56-.12.51-.58.86-1.09.86Z"/><path class="cls-1" d="m42.53,52.01c-.17,0-.34-.04-.5-.12-.23-.12-5.74-2.96-7.36-9.99-.11-.49.11-.99.56-1.23.22-.12,5.55-2.96,11.09-1.88.61.12,1,.7.88,1.31s-.7,1-1.31.88c-3.63-.71-7.26.6-8.82,1.28,1.61,5.36,5.92,7.62,5.96,7.64.55.28.77.95.49,1.5-.2.39-.59.61-1,.61Z"/><path class="cls-1" d="m45.75,43.14c-.14,0-.29-.03-.43-.09-5.34-2.23-8.9-.49-9.05-.42-.55.28-1.22.06-1.5-.49-.28-.55-.07-1.22.48-1.5.18-.1,4.58-2.31,10.94.34.57.24.84.89.6,1.46-.18.43-.59.69-1.03.69Z"/></g><path class="cls-1" d="m56.94,53.04l-1.88-.62c-.86-.28-.95-1.46-.14-1.87l2.5-1.26c.81-.41,1.7.36,1.42,1.22l-.62,1.88c-.17.53-.75.82-1.28.65Z"/><g><path class="cls-1" d="m55.56,57.72c-1.22,0-2.4-.67-2.99-1.84-.28-.55-.06-1.22.49-1.5.55-.28,1.22-.06,1.5.49.28.55.95.77,1.49.49l.24-.12c.55-.28.77-.95.49-1.49l-.33-.66c-.28-.55-.06-1.22.49-1.5.55-.28,1.22-.06,1.5.49l.33.66c.83,1.65.17,3.66-1.48,4.5l-.24.12c-.48.24-1,.36-1.5.36Z"/><path class="cls-1" d="m59.84,55.56c-.35,0-.71-.06-1.05-.17-.85-.28-1.54-.87-1.94-1.67l-.33-.66c-.28-.55-.06-1.22.49-1.5.55-.28,1.22-.06,1.5.49l.33.66c.13.27.36.46.65.56.28.09.58.07.85-.06l.24-.12c.55-.28.77-.95.49-1.49-.28-.55-.06-1.22.49-1.5.55-.28,1.22-.06,1.5.49.83,1.65.17,3.66-1.48,4.5l-.24.12c-.47.24-.99.36-1.5.36Z"/></g><path class="cls-1" d="m41.43,61.17c-.33,0-.66-.15-.88-.43-.38-.49-.29-1.19.2-1.57.1-.08,2.57-1.97,7.16-4.29.55-.28,1.22-.06,1.5.49.28.55.06,1.22-.49,1.5-4.37,2.21-6.77,4.04-6.8,4.06-.2.16-.44.23-.68.23Z"/><path class="cls-1" d="m44.1,63.94c-.18,0-.36-.04-.52-.13-.54-.29-.75-.96-.46-1.51.07-.13,1.78-3.3,5.83-5.89.52-.33,1.21-.18,1.54.34.33.52.18,1.21-.34,1.54-3.52,2.26-5.05,5.03-5.06,5.06-.2.37-.59.59-.99.59Z"/><path class="cls-1" d="m65.3,48.46c-.4,0-.78-.21-.98-.59-.29-.54-.09-1.22.45-1.51,3.76-2.02,8.72-2.05,8.93-2.05.62,0,1.12.5,1.12,1.12s-.5,1.12-1.12,1.12h0s-4.62.03-7.87,1.78c-.17.09-.35.13-.53.13Z"/><path class="cls-1" d="m73.57,50.87c-.12,0-.23-.02-.35-.06-.04-.01-2.62-.83-7.47-.64-.62.03-1.14-.46-1.16-1.07-.02-.62.46-1.14,1.07-1.16,5.32-.2,8.14.71,8.26.75.59.2.9.83.71,1.41-.16.47-.59.76-1.06.76Z"/></g><g><g><g><path class="cls-1" d="m15.86,60.7c-3.83,0-6.95-3.12-6.95-6.95v-4.72c0-1.59.48-3.12,1.38-4.43.35-.51,1.05-.63,1.55-.28.51.35.63,1.05.28,1.55-.65.93-.99,2.03-.99,3.16v4.72c0,2.6,2.12,4.72,4.72,4.72s4.72-2.12,4.72-4.72c0-.62.5-1.12,1.12-1.12s1.12.5,1.12,1.12c0,3.83-3.12,6.95-6.95,6.95Z"/><path class="cls-1" d="m27.6,60.7c-3.83,0-6.95-3.12-6.95-6.95,0-.62.5-1.12,1.12-1.12s1.12.5,1.12,1.12c0,2.6,2.12,4.72,4.72,4.72s4.72-2.12,4.72-4.72v-4.72c0-1.14-.34-2.23-.99-3.16-.35-.51-.22-1.2.28-1.55.51-.35,1.2-.22,1.55.28.9,1.31,1.38,2.84,1.38,4.43v4.72c0,3.83-3.12,6.95-6.95,6.95Z"/><path class="cls-1" d="m21.79,54.11c-.75,0-1.47-.35-1.93-.95l-2.09-2.23s-.06-.07-.09-.11c-.54-.75-.62-1.72-.2-2.55.42-.82,1.26-1.33,2.18-1.33h4.27c.92,0,1.76.51,2.18,1.33.42.82.34,1.8-.2,2.55-.03.04-.06.07-.09.11l-2.09,2.23c-.46.59-1.18.95-1.93.95Zm-2.33-4.63l2.07,2.2s.06.07.09.11c.05.07.12.09.17.09s.12-.02.17-.09c.03-.04.06-.07.09-.11l2.07-2.2c.03-.06.03-.12,0-.18-.04-.08-.1-.12-.19-.12h-4.27c-.09,0-.15.04-.19.12-.03.06-.03.13,0,.18Z"/></g><g><path class="cls-1" d="m9.27,55.29h-.96c-2.11,0-4.12-.7-5.82-2.01l-.61-.47c-1.53-1.18-2.21-3.2-1.74-5.13l3.96-16.26c.67-2.77,3.05-4.75,5.77-4.8.62-.02,1.13.48,1.14,1.1.01.62-.48,1.13-1.1,1.14-1.71.03-3.21,1.3-3.65,3.09l-3.96,16.26c-.26,1.06.12,2.2.94,2.84l.61.47c1.3,1.01,2.84,1.54,4.45,1.54h.96c.62,0,1.12.5,1.12,1.12s-.5,1.12-1.12,1.12Z"/><path class="cls-1" d="m9.41,53.48c-.44,0-.86-.26-1.04-.7l-2.19-5.42c-1.35-3.34-1.5-7.08-.44-10.53l2.24-7.27c1.06-3.42,3.93-5.92,7.32-6.35l2.05-.25c2.9-.35,5.84-.35,8.74,0l2.05.25c3.4.43,6.27,2.93,7.33,6.35l2.28,7.57c.18.59-.16,1.21-.75,1.39-.59.18-1.21-.16-1.39-.75l-2.28-7.57c-.8-2.58-2.94-4.46-5.47-4.79l-2.04-.25c-2.72-.33-5.48-.33-8.2,0l-2.05.25c-2.52.32-4.66,2.2-5.46,4.79l-2.24,7.27c-.91,2.96-.78,6.17.37,9.04l2.19,5.42c.23.57-.05,1.22-.62,1.45-.14.06-.28.08-.42.08Z"/><path class="cls-1" d="m35.15,55.29h-.96c-.62,0-1.12-.5-1.12-1.12s.5-1.12,1.12-1.12h.96c1.23,0,1.46-.18,1.9-.53.08-.06.17-.13.26-.2.49-.37,1.19-.27,1.56.22.37.49.27,1.19-.22,1.56-.07.06-.14.11-.21.16-.75.59-1.42,1.01-3.29,1.01Z"/><path class="cls-1" d="m40.28,37.68c-.47,0-.9-.29-1.06-.76l-1.9-5.66s-.02-.06-.03-.09c-.27-1.12-1.43-2.28-3.11-2.33h-.61c-.62,0-1.12-.5-1.12-1.12s.5-1.12,1.12-1.12h.62s.02,0,.02,0c2.46.05,4.65,1.73,5.23,3.98l1.89,5.61c.2.58-.12,1.22-.7,1.41-.12.04-.24.06-.36.06Z"/></g><g><circle class="cls-1" cx="16.52" cy="38.6" r="1.9"/><circle class="cls-1" cx="26.95" cy="38.6" r="1.9" transform="translate(-16.78 56.02) rotate(-76.79)"/></g></g><path class="cls-1" d="m21.73,70.79c-1.69,0-3.26-.66-4.32-1.82-.9-.98-1.32-2.22-1.21-3.48l.57-6.04c.06-.61.6-1.06,1.22-1.01.61.06,1.06.6,1.01,1.22l-.57,6.04c-.07.8.3,1.4.64,1.77.64.7,1.61,1.1,2.67,1.1s2.03-.4,2.67-1.1c.33-.36.71-.96.63-1.77l-.57-6.04c-.06-.61.39-1.16,1.01-1.22.61-.06,1.16.39,1.22,1.01l.57,6.04c.12,1.27-.31,2.5-1.21,3.48-1.06,1.16-2.63,1.82-4.32,1.82Z"/><path class="cls-1" d="m21.73,65.66c-.62,0-1.12-.5-1.12-1.12v-9.46c0-.62.5-1.12,1.12-1.12s1.12.5,1.12,1.12v9.46c0,.62-.5,1.12-1.12,1.12Z"/></g><path class="cls-1" d="m46.88,50.29c-.29,0-.58-.11-.8-.34-.43-.44-.42-1.15.02-1.58,1.11-1.08,2.57-1.52,4.22-1.26,1.15.18,1.99.64,2.08.69.54.3.73.98.43,1.52-.3.54-.98.73-1.52.43-.1-.05-2.21-1.18-3.65.22-.22.21-.5.32-.78.32Z"/><path class="cls-1" d="m57.7,46.68c-.05,0-.1,0-.16-.01-.61-.09-1.04-.65-.95-1.26.01-.1.16-1.05.72-2.07.8-1.47,2.03-2.36,3.56-2.59.61-.09,1.18.33,1.27.94.09.61-.33,1.18-.94,1.27-.84.12-1.46.59-1.92,1.44-.36.67-.47,1.31-.47,1.32-.08.56-.56.96-1.1.96Z"/></g><path class="cls-1" d="m46.51,24.9h0c-.3,0-.58-.12-.79-.33l-10.16-10.27c-2.96-2.99-2.94-7.84.06-10.8,2.99-2.96,7.84-2.94,10.8.06l.2.2.26-.26c2.99-2.96,7.84-2.94,10.8.06,1.44,1.45,2.22,3.37,2.21,5.41-.01,2.04-.81,3.95-2.26,5.39l-10.32,10.22c-.21.21-.49.32-.79.32Zm-5.52-21.37c-1.37,0-2.75.52-3.8,1.56-1.03,1.02-1.59,2.37-1.6,3.81,0,1.44.55,2.8,1.56,3.83l9.37,9.47,9.53-9.43c1.03-1.02,1.59-2.37,1.6-3.81,0-1.44-.55-2.8-1.56-3.83-2.1-2.12-5.52-2.14-7.64-.04l-1.05,1.04c-.21.21-.49.33-.79.32-.3,0-.58-.12-.79-.33l-.99-1c-1.05-1.07-2.45-1.6-3.84-1.6Z"/><path class="cls-1" d="m26.69,19.68c-.15,0-.31-.03-.45-.1l-4.79-2.12c-.85-.38-1.5-1.06-1.84-1.93-.33-.87-.31-1.81.07-2.66.38-.85,1.06-1.5,1.93-1.84.69-.27,1.43-.31,2.13-.12.91-1.42,2.75-2,4.34-1.3.85.38,1.5,1.06,1.84,1.93.33.87.31,1.81-.07,2.66l-2.14,4.81c-.12.27-.34.48-.62.59-.13.05-.27.07-.4.07Zm-3.83-6.65c-.15,0-.3.03-.45.08-.31.12-.56.35-.69.66-.14.3-.14.64-.02.95.12.31.35.56.66.69l3.77,1.67,1.68-3.79c.14-.3.14-.64.02-.95-.12-.31-.35-.56-.66-.69-.63-.28-1.37,0-1.65.63l-.22.49c-.25.56-.91.82-1.47.57l-.46-.21c-.16-.07-.33-.11-.51-.11Z"/><path class="cls-1" d="m70.27,7.8c-.01.68-.57,1.23-1.25,1.22-.68-.01-1.23-.57-1.22-1.25.01-.68.57-1.23,1.25-1.22.68.01,1.23.57,1.22,1.25Z"/><g><path class="cls-1" d="m65.93,17.36s-.01,0-.02,0c-.62,0-1.11-.52-1.1-1.13v-.73c.02-.62.53-1.11,1.15-1.1.62,0,1.11.52,1.1,1.13v.73c-.02.61-.52,1.1-1.13,1.1Z"/><path class="cls-1" d="m65.82,23.8s-.01,0-.02,0c-.62,0-1.11-.52-1.1-1.13v-.73c.02-.61.52-1.1,1.13-1.1,0,0,.01,0,.02,0,.62,0,1.11.52,1.1,1.13v.73c-.02.61-.52,1.1-1.13,1.1Z"/><path class="cls-1" d="m63.03,20.17s-.01,0-.02,0h-.73c-.62-.02-1.11-.53-1.1-1.15,0-.61.51-1.1,1.12-1.1,0,0,.01,0,.02,0h.73c.62.02,1.11.53,1.1,1.15,0,.61-.51,1.1-1.12,1.1Z"/><path class="cls-1" d="m69.46,20.27s-.01,0-.02,0h-.73c-.62-.02-1.11-.53-1.1-1.15,0-.61.51-1.1,1.12-1.1,0,0,.01,0,.02,0h.73c.62.02,1.11.53,1.1,1.15,0,.61-.51,1.1-1.12,1.1Z"/></g><g><path class="cls-1" d="m15.24,2.96s-.01,0-.02,0c-.62,0-1.11-.52-1.1-1.13v-.73C14.14.48,14.65,0,15.27,0c.62,0,1.11.52,1.1,1.13v.73c-.02.61-.52,1.1-1.13,1.1Z"/><path class="cls-1" d="m15.14,9.4s-.01,0-.02,0c-.62,0-1.11-.52-1.1-1.13v-.73c.02-.62.53-1.11,1.15-1.1.62,0,1.11.52,1.1,1.13v.73c-.02.61-.52,1.1-1.13,1.1Z"/><path class="cls-1" d="m12.34,5.77s-.01,0-.02,0h-.73c-.62-.02-1.11-.53-1.1-1.15,0-.62.52-1.11,1.13-1.1h.73c.62.02,1.11.53,1.1,1.15,0,.61-.51,1.1-1.12,1.1Z"/><path class="cls-1" d="m18.78,5.87s-.01,0-.02,0h-.73c-.62-.02-1.11-.53-1.1-1.15,0-.62.52-1.11,1.13-1.1h.73c.62.02,1.11.53,1.1,1.15,0,.61-.51,1.1-1.12,1.1Z"/></g></g></g></svg>