<?xml version="1.0" encoding="UTF-8"?><svg id="Layer_2" xmlns="http://www.w3.org/2000/svg" viewBox="0 0 65.23 65.23"><defs><style>.cls-1{fill:#fff;}</style></defs><g id="Layer_1-2"><g><path class="cls-1" d="m58.44,0h-15.25c-.75,0-1.36.61-1.36,1.36s.61,1.36,1.36,1.36h15.25c2.24,0,4.08,1.83,4.08,4.08v24.46c0,2.24-1.84,4.08-4.08,4.08h-13.59c-.27,0-.54.08-.75.23l-6.05,4.02v-2.89c0-.37-.14-.71-.39-.97-.26-.26-.6-.39-.96-.39h-9.46c.2-.67.37-1.37.48-2.09,1.37-1.9,2.18-4.23,2.18-6.74,0-4.47-2.55-8.35-6.27-10.27.1-.41.16-.84.16-1.28,0-.95-.25-1.85-.68-2.63v-5.53c0-2.24,1.83-4.08,4.08-4.08h5.14c.75,0,1.36-.61,1.36-1.36s-.61-1.36-1.36-1.36h-5.14c-3.75,0-6.8,3.04-6.8,6.79v3.12c-.63-.26-1.32-.4-2.04-.4-3,0-5.44,2.44-5.44,5.44,0,.44.06.87.16,1.28-3.72,1.92-6.27,5.8-6.27,10.27,0,2.15.59,4.17,1.62,5.89.37,3.61,1.93,6.74,4.15,8.72-2.58.56-4.83,1.21-5.01,1.26-3.66,1.13-7.56,4.16-7.56,9.29v12.21c0,.75.61,1.36,1.36,1.36s1.36-.61,1.36-1.36v-12.21c0-4.59,4.32-6.29,5.63-6.69.04-.01,2.19-.63,4.65-1.17.04,1.87,2.8,4.55,4.46,6,.26.22.57.33.89.33s.64-.11.89-.33c1.66-1.44,4.42-4.13,4.46-6,2.45.54,4.6,1.16,4.63,1.17,1.33.41,5.65,2.1,5.65,6.7v12.21c0,.75.61,1.36,1.36,1.36s1.36-.61,1.36-1.36v-12.21c0-5.13-3.91-8.16-7.59-9.3-.17-.05-2.62-.76-5.35-1.33.92-.84,1.73-1.88,2.38-3.07.34.05.69.09,1.04.09h8.15v4.08c0,.5.27.96.72,1.2.19.11.42.16.64.16.27,0,.53-.08.75-.23l7.81-5.2h13.18c3.75,0,6.79-3.04,6.79-6.79V6.79c0-3.75-3.04-6.79-6.79-6.79ZM20.99,43.73c-.12.52-1.26,1.89-2.64,3.21-1.38-1.32-2.55-2.72-2.64-3.17v-.81c.26.09.53.16.8.21.52.11,1.06.17,1.61.17.6,0,1.19-.07,1.77-.21.37-.09.74-.2,1.1-.34v.94Zm2.36-6.33c-.3.46-.64.89-1,1.27-.42.44-.88.81-1.36,1.11-.42.26-.86.46-1.31.61-.5.16-1.02.24-1.55.24-.5,0-.98-.07-1.45-.21-.33-.1-.65-.22-.97-.38-.48-.24-.93-.56-1.36-.94-.44-.39-.85-.85-1.22-1.37-.31-.43-.59-.9-.84-1.4-.35-.72-.64-1.5-.85-2.33-.2-.79-.33-1.63-.37-2.5-.01-.2-.02-.39-.02-.59.66.17,1.33.26,2.01.26,2.61,0,5.04-1.29,6.86-3.59.15.12.31.22.47.33.44.29.89.54,1.36.74.44.19.9.34,1.36.44.65.15,1.33.22,2.01.2.05.47.08.96.08,1.46s-.03.96-.07,1.42c-.08.8-.23,1.57-.45,2.3v.04c-.14.45-.3.88-.48,1.3-.13.31-.28.62-.44.9-.06.1-.12.21-.18.31-.08.13-.16.26-.24.39Zm-7.71-22.45c0-1.5,1.22-2.72,2.72-2.72.81,0,1.54.36,2.04.93.42.48.68,1.11.68,1.79,0,.11,0,.22-.02.32-.22-.05-.44-.1-.66-.14-.66-.12-1.34-.18-2.04-.18-.93,0-1.83.11-2.7.32-.01-.11-.02-.21-.02-.32Zm.09,3.12c.83-.26,1.71-.4,2.63-.4.7,0,1.38.09,2.04.25.2.05.4.09.59.15.26.08.52.18.77.28.2.08.4.18.59.28.26.13.52.28.77.44,2.45,1.57,4.08,4.31,4.08,7.43,0,.1-.01.19-.01.28-.31-.29-.75-.42-1.2-.33-1.09.23-2.05.11-2.87-.19-.51-.19-.96-.44-1.36-.72-.43-.3-.79-.63-1.09-.94-.08-.08-.17-.15-.27-.21-.26-.16-.56-.23-.87-.2-.42.05-.8.29-1.01.66-1.36,2.29-3.35,3.61-5.44,3.61-.9,0-1.77-.24-2.6-.7-.27-.15-.58-.2-.87-.15-.04-.36-.08-.73-.08-1.1,0-3.43,1.97-6.41,4.85-7.87.44-.22.89-.42,1.36-.56ZM36.4,1.36c0-.75.61-1.36,1.36-1.36s1.36.61,1.36,1.36-.61,1.36-1.36,1.36-1.36-.61-1.36-1.36Zm-5.14,54.36v8.15c0,.75-.61,1.36-1.36,1.36s-1.36-.61-1.36-1.36v-8.15c0-.75.61-1.36,1.36-1.36s1.36.61,1.36,1.36Zm-23.1,0v8.15c0,.75-.61,1.36-1.36,1.36s-1.36-.61-1.36-1.36v-8.15c0-.75.61-1.36,1.36-1.36s1.36.61,1.36,1.36Z"/><g><circle class="cls-1" cx="45.15" cy="12.04" r="1.85"/><circle class="cls-1" cx="45.15" cy="12.04" r="1.85"/><circle class="cls-1" cx="42.6" cy="24.27" r="1.85"/><circle class="cls-1" cx="49.99" cy="19.43" r="1.85"/><circle class="cls-1" cx="49.99" cy="19.43" r="1.85"/><circle class="cls-1" cx="37.76" cy="16.88" r="1.85"/><circle class="cls-1" cx="49.1" cy="14.73" r="1.85"/><circle class="cls-1" cx="49.1" cy="14.73" r="1.85"/><circle class="cls-1" cx="38.65" cy="21.58" r="1.85"/><circle class="cls-1" cx="47.3" cy="23.38" r="1.85"/><circle class="cls-1" cx="47.3" cy="23.38" r="1.85"/><circle class="cls-1" cx="40.45" cy="12.93" r="1.85"/></g></g></g></svg>