<?xml version="1.0" encoding="UTF-8"?><svg id="Layer_2" xmlns="http://www.w3.org/2000/svg" viewBox="0 0 64.09 69.31"><defs><style>.cls-1{fill:#264553;}</style></defs><g id="Layer_1-2"><g><path class="cls-1" d="m33.06,41.4c.78,1.16,2.1,1.92,3.6,1.92.38,0,.74-.05,1.09-.14l-1.09,17.38c-.02.4.12.79.39,1.08.27.29.65.46,1.05.46h2.89v5.78c0,.8.65,1.44,1.44,1.44h11.55c.8,0,1.44-.65,1.44-1.44v-5.78h2.89c.4,0,.78-.17,1.05-.46.27-.29.41-.68.39-1.08l-1.08-17.35c.32.08.66.12,1,.12.21,0,.43-.01.64-.04,2.08-.31,3.78-2.3,3.78-4.45,0-4.42-1.31-16.1-1.44-17.27-.05-3.94-3.27-7.13-7.22-7.13h-.28c.18-.69.28-1.41.28-2.17,0-.22,0-.46-.03-.71-.16-2.03-1.03-3.84-2.33-5.15.12-.44.19-.89.19-1.37,0-2.79-2.27-5.05-5.05-5.05s-5.05,2.27-5.05,5.05c0,.47.07.93.19,1.37-1.3,1.3-2.16,3.11-2.33,5.15-.03.25-.03.49-.03.71,0,.75.1,1.48.28,2.17h-.28c-3.98,0-7.22,3.24-7.21,7.1l-1.39,16.75m26.43,1.84c-.15-.13-.27-.3-.36-.48-.09-.19-.13-.39-.13-.6v-1.51s0-.06,0-.08c0-.02,0-.03,0-.04,0-.01,0-.02,0-.03l-1.44-13c-.09-.79-.8-1.37-1.59-1.28-.79.09-1.36.8-1.28,1.59l1.27,11.39h-14.1l1.27-11.39c.09-.79-.48-1.51-1.28-1.59-.79-.09-1.51.48-1.59,1.28l-1.44,13s0,.02,0,.03c0,.02,0,.03,0,.04,0,.03,0,.05,0,.08v1.44c0,.21-.05.41-.13.59-.23.5-.73.85-1.31.85-.8,0-1.44-.65-1.45-1.32l.13-1.56,1.32-15.88c0-2.39,1.94-4.33,4.33-4.33h1.65c1.33,1.76,3.33,2.89,5.57,2.89s4.24-1.13,5.56-2.89h1.65c2.39,0,4.33,1.94,4.33,4.33,0,.05,0,.11,0,.16.02.13,1.44,12.62,1.44,17.02,0,.72-.64,1.49-1.39,1.6-.49.07-.84-.16-1.01-.31Zm-6.27,26.29h-2.89v-4.33h2.89v4.33Zm-8.66-4.33h2.89v4.33h-2.89v-4.33Zm10.11-2.89h-14.35l1.19-19.07c.1-.37.16-.75.16-1.15h14.44v.06c0,.39.06.78.16,1.15l1.19,19h-2.79ZM48.21,2.89c1.07,0,1.95.78,2.13,1.8-.67-.23-1.39-.35-2.13-.35s-1.46.12-2.13.35c.18-1.02,1.06-1.8,2.13-1.8Zm-3.24,6.04c.3-.4.66-.74,1.05-1.01.64-.44,1.39-.7,2.19-.7s1.55.26,2.19.7c.39.27.75.61,1.05,1.01.08.1.15.21.22.31-.28.08-.56.18-.84.27-.33.11-.67.23-1.03.33-.4.11-.8.2-1.21.24-.13.01-.25.02-.38.02s-.25,0-.38-.02c-.41-.04-.81-.13-1.21-.24-.35-.1-.7-.22-1.03-.33-.28-.1-.56-.19-.84-.27.07-.11.14-.21.22-.31Zm-1.09,3.34c0-.11,0-.2,0-.28,0,0,0,0,0,0,.24.07.53.17.77.25.97.33,2.18.75,3.55.75s2.58-.41,3.55-.75c.24-.08.53-.18.77-.25,0,0,0,0,0,0,0,.08,0,.17,0,.28,0,.78-.16,1.51-.42,2.17-.22.54-.52,1.03-.88,1.44-.78.89-1.85,1.44-3.03,1.44s-2.24-.55-3.03-1.44c-.36-.41-.66-.9-.88-1.44-.27-.66-.42-1.39-.42-2.17Z"/><path class="cls-1" d="m27.43,11.55h-2.24c.51-1.08.8-2.31.8-3.61C25.99,3.56,22.75,0,18.77,0s-7.22,3.56-7.22,7.94c0,1.3.29,2.53.8,3.61h-2.24c-3.98,0-7.22,3.24-7.22,7.22v21C1.16,40.78,0,42.66,0,44.85l1.44,23.1c.05.77.68,1.35,1.44,1.35.03,0,.06,0,.09,0,.8-.05,1.4-.74,1.35-1.53l-1.44-23.01c0-.74.28-1.41.74-1.92.78,1.16,2.1,1.92,3.6,1.92.51,0,.99-.09,1.44-.25v23.36c0,.8.65,1.44,1.44,1.44h17.33c.8,0,1.44-.65,1.44-1.44v-23.31c.43.14.88.22,1.36.22.21,0,.43-.01.64-.05,2.08-.31,3.77-2.3,3.77-4.45v-21.52c0-3.98-3.24-7.22-7.22-7.22Zm4.33,28.73c0,.72-.64,1.49-1.39,1.6-.49.07-.84-.16-1.01-.31-.31-.27-.49-.66-.49-1.08v-18.84c0-.8-.65-1.44-1.44-1.44s-1.44.65-1.44,1.44v15.88h-14.44v-15.88c0-.8-.65-1.44-1.44-1.44s-1.44.65-1.44,1.44v18.77c0,.8-.65,1.44-1.44,1.44s-1.44-.65-1.44-1.44v-21.66c0-2.39,1.94-4.33,4.33-4.33h2.89c0,1.05,1.46,13,5.78,13s5.78-11.94,5.78-13h2.89c2.39,0,4.33,1.94,4.33,4.33v21.52Zm-13,5.92c-.8,0-1.44.65-1.44,1.44v18.77h-5.78v-25.99h14.44v25.99h-5.78v-18.77c0-.8-.65-1.44-1.44-1.44Zm0-43.32c2.39,0,4.33,2.27,4.33,5.05,0,.8-.17,1.56-.45,2.23-1.03-.93-2.39-1.51-3.88-1.51s-2.85.58-3.88,1.51c-.29-.67-.45-1.43-.45-2.23,0-2.79,1.94-5.05,4.33-5.05Zm-2.77,10.75c.07-.23.16-.44.28-.65.13-.22.28-.42.46-.6.52-.52,1.24-.85,2.04-.85s1.52.32,2.04.85c.18.18.33.38.46.6.12.2.21.42.28.65.07.25.11.52.11.8,0,.23-.02.5-.04.8-.27,2.8-1.73,8.16-2.84,9.21-1.12-1.05-2.57-6.41-2.84-9.21-.03-.3-.04-.57-.04-.8,0-.28.04-.54.11-.8Z"/></g></g></svg>