<?xml version="1.0" encoding="utf-8"?>
<!-- Generator: Adobe Illustrator 27.5.0, SVG Export Plug-In . SVG Version: 6.00 Build 0)  -->
<svg version="1.1" id="Layer_2_00000142169047364114844000000000731079113824250802_"
	 xmlns="http://www.w3.org/2000/svg" xmlns:xlink="http://www.w3.org/1999/xlink" x="0px" y="0px" viewBox="0 0 300.3 84.8"
	 style="enable-background:new 0 0 300.3 84.8;" xml:space="preserve">
<style type="text/css">
	.st0{fill:#FFFFFF;}
	.st1{fill:#54B2D4;}
	.st2{fill:#F6CF56;}
</style>
<g id="Layer_1-2">
	<g>
		<path class="st0" d="M51.6,64.4c0.7,0,1.7-0.6,2.1-0.8c0.1-0.1,0.2-0.1,0.3-0.1c0.2,0,0.4,0.1,0.5,0.3l1.7,5.3
			c0.2,0.4,0.1,0.7-0.2,0.9c-1.6,1.2-4,1.8-6,1.8c-4.9,0-7.8-3.5-7.8-9.1V51.4h-3.3c-0.3,0-0.6-0.2-0.6-0.5v-5.7
			c0-0.3,0.2-0.6,0.6-0.6h3.3l0.1-8c0-0.3,0.2-0.6,0.5-0.6h6.1c0.3,0,0.6,0.2,0.6,0.6v8h5c0.3,0,0.6,0.2,0.6,0.6v5.7
			c0,0.3-0.2,0.5-0.6,0.5h-5v7.2C49.7,63.1,49.9,64.4,51.6,64.4z"/>
		<path class="st0" d="M63.2,31.3c2.7,0,4.5,1.8,4.5,4.5s-1.8,4.6-4.5,4.6s-4.6-1.8-4.6-4.6S60.5,31.3,63.2,31.3z M66.9,70.8
			c0,0.3-0.2,0.6-0.6,0.6h-6.2c-0.3,0-0.6-0.2-0.6-0.6V45.1c0-0.3,0.2-0.6,0.6-0.6h6.2c0.3,0,0.5,0.2,0.5,0.5L66.9,70.8L66.9,70.8
			L66.9,70.8z"/>
		<path class="st0" d="M78.6,44.6c0.4-0.1,0.6,0.2,0.7,0.6l0.6,2.4c1.6-2.2,4-3.6,7.3-3.6s6.3,1.8,7.9,5c1.6-3.1,4.4-5,8.4-5
			c5.6,0,9.4,4.6,9.4,12v14.9c0,0.4-0.2,0.6-0.6,0.6h-6.2c-0.4,0-0.6-0.2-0.6-0.6V57.4c0-4-1.5-6.2-4.3-6.2
			c-2.6,0.1-4.7,2.2-4.7,7.8l0.1,11.8c0,0.4-0.2,0.6-0.6,0.6h-6.2c-0.3,0-0.6-0.3-0.6-0.6V57.4c0-4-1.5-6.2-4.3-6.2
			c-2.5,0.1-4.5,2.1-4.7,7v12.6c0,0.3-0.2,0.6-0.6,0.6h-6.2c-0.3,0-0.5-0.2-0.5-0.6L73,45.1c0-0.3,0.3-0.6,0.6-0.6L78.6,44.6
			C78.6,44.6,78.6,44.6,78.6,44.6z"/>
		<path class="st0" d="M131.5,65.2c2.5,0,4.4-0.8,5.6-1.7c0.2-0.2,0.4-0.3,0.6-0.3s0.3,0.1,0.4,0.2l3.8,4c0.2,0.2,0.3,0.6,0.1,0.8
			c-2.5,2.7-6.2,3.8-10.8,3.8c-8.5,0-14.1-5.6-14.1-14s5.6-14,13.9-14s13.9,4.9,13.9,16.2c0,0.3-0.2,0.6-0.6,0.6h-19.4
			C125.6,63.4,127.9,65.2,131.5,65.2L131.5,65.2L131.5,65.2z M137,55.7c-0.7-2.8-2.8-4.7-6.2-4.7s-5.6,1.9-6.2,4.7H137z"/>
		<path class="st0" d="M160.4,64.4c0.7,0,1.7-0.6,2.1-0.8c0.1-0.1,0.2-0.1,0.3-0.1c0.2,0,0.4,0.1,0.5,0.3l1.7,5.3
			c0.2,0.4,0.1,0.7-0.2,0.9c-1.6,1.2-4,1.8-5.9,1.8c-4.9,0-7.8-3.5-7.8-9.1V51.4h-3.3c-0.3,0-0.6-0.2-0.6-0.5v-5.7
			c0-0.3,0.2-0.6,0.6-0.6h3.3l0.1-8c0-0.3,0.2-0.6,0.5-0.6h6.1c0.3,0,0.6,0.2,0.6,0.6v8h5.1c0.3,0,0.6,0.2,0.6,0.6v5.7
			c0,0.3-0.2,0.5-0.6,0.5h-5.1v7.2C158.4,63.1,158.6,64.4,160.4,64.4L160.4,64.4z"/>
		<path class="st0" d="M180.7,43.9c8.4,0,14,5.7,14,14s-5.6,14-14,14s-13.9-5.7-13.9-14S172.4,43.9,180.7,43.9z M180.7,64.7
			c4,0,6.7-2.7,6.7-6.7s-2.6-6.7-6.7-6.7s-6.6,2.7-6.6,6.7S176.8,64.7,180.7,64.7z"/>
		<path class="st0" d="M219.5,48l1.1-2.9c0.1-0.5,0.3-0.6,0.7-0.6h4.3c0.3,0,0.6,0.2,0.6,0.6l0.1,25.2c0,8.7-5.8,14.4-14.3,14.4
			c-5.3-0.1-9-1.7-10.9-2.9c-0.3-0.2-0.4-0.5-0.3-0.9l2.6-5.4c0.1-0.2,0.3-0.3,0.5-0.3c0.1,0,0.2,0,0.3,0.1c1.4,0.8,4.3,1.9,7.4,2.1
			c4.9-0.1,7.4-2.9,7.4-7.4v-1.1c-1.7,1.9-4.1,3.1-7.2,3.1c-8.4,0-13.8-5.6-13.8-14S203.3,44,211.4,44C214.9,44,217.7,45.4,219.5,48
			L219.5,48L219.5,48z M211.8,64.7c4.1,0,7-2.7,7-6.7s-2.8-6.7-7-6.7c-4,0-6.6,2.7-6.6,6.7S207.8,64.7,211.8,64.7z"/>
		<path class="st0" d="M235.9,31.3c2.8,0,4.5,1.8,4.5,4.5s-1.8,4.6-4.5,4.6s-4.6-1.8-4.6-4.6S233.1,31.3,235.9,31.3z M239.5,70.8
			c0,0.3-0.2,0.6-0.6,0.6h-6.2c-0.3,0-0.6-0.2-0.6-0.6V45.1c0-0.3,0.2-0.6,0.6-0.6h6.2c0.3,0,0.5,0.2,0.5,0.5L239.5,70.8L239.5,70.8
			L239.5,70.8z"/>
		<path class="st0" d="M261,70.9c-0.1,0.3-0.5,0.5-0.8,0.5h-7c-0.3,0-0.7-0.2-0.8-0.5l-9.8-25.6c-0.1-0.4,0-0.7,0.5-0.7h6.6
			c0.3,0,0.5,0.2,0.6,0.5l6.3,17.7l6.3-17.7c0.1-0.3,0.3-0.5,0.7-0.5h6.6c0.5,0,0.7,0.3,0.5,0.7L261,70.9L261,70.9L261,70.9z"/>
		<path class="st0" d="M287.1,65.2c2.5,0,4.4-0.8,5.5-1.7c0.2-0.2,0.4-0.3,0.6-0.3s0.3,0.1,0.4,0.2l3.8,4c0.2,0.2,0.3,0.6,0.1,0.8
			c-2.5,2.7-6.2,3.8-10.8,3.8c-8.5,0-14.1-5.6-14.1-14s5.5-14,13.9-14s13.9,4.9,13.9,16.2c0,0.3-0.2,0.6-0.6,0.6h-19.4
			C281.2,63.4,283.4,65.2,287.1,65.2L287.1,65.2L287.1,65.2z M292.6,55.7c-0.7-2.8-2.8-4.7-6.2-4.7s-5.5,1.9-6.2,4.7H292.6
			L292.6,55.7z"/>
		<g>
			<circle class="st1" cx="26.2" cy="5.3" r="5.3"/>
			<circle class="st1" cx="26.2" cy="5.3" r="5.3"/>
			<circle class="st1" cx="19" cy="40" r="5.3"/>
			<circle class="st1" cx="40" cy="26.2" r="5.3"/>
			<circle class="st1" cx="40" cy="26.2" r="5.3"/>
			<circle class="st1" cx="5.3" cy="19" r="5.3"/>
			<circle class="st1" cx="37.4" cy="12.9" r="5.3"/>
			<circle class="st1" cx="37.4" cy="12.9" r="5.3"/>
			<circle class="st1" cx="7.8" cy="32.3" r="5.3"/>
			<circle class="st1" cx="32.3" cy="37.4" r="5.3"/>
			<circle class="st2" cx="32.3" cy="37.4" r="5.3"/>
			<circle class="st1" cx="12.9" cy="7.8" r="5.3"/>
		</g>
	</g>
</g>
</svg>
