<?xml version="1.0" encoding="UTF-8"?>
<svg id="a" data-name="Layer 1" xmlns="http://www.w3.org/2000/svg" viewBox="0 0 474.86 103.8">
  <defs>
    <style>
      .b {
        fill: #fff;
      }
    </style>
  </defs>
  <path class="b" d="m23.97,69.04c1.24,0,2.96-.95,3.63-1.34.19-.1.29-.1.48-.1.38,0,.67.19.86.48l2.96,9.07c.29.67.19,1.24-.29,1.53-2.67,2.1-6.78,3.06-10.12,3.06-8.31,0-13.27-5.92-13.18-15.47v-19.48H2.67c-.57,0-.96-.38-.96-.86v-9.74c0-.57.38-.96.96-.96h5.63l.1-13.65c0-.57.29-.96.86-.96h10.41c.57,0,.96.38.96.96v13.65h8.59c.57,0,.96.38.96.96v9.74c0,.48-.38.86-.96.86h-8.59v12.32c0,7.64.38,9.93,3.34,9.93Z"/>
  <path class="b" d="m43.73,12.6c4.68,0,7.73,3.06,7.73,7.73s-3.06,7.83-7.73,7.83-7.83-3.15-7.83-7.83,3.15-7.73,7.83-7.73Zm6.21,67.32c0,.57-.38.96-.96.96h-10.5c-.57,0-.96-.38-.96-.96v-43.73c0-.57.38-.96,1.05-.96h10.5c.48,0,.86.38.86.86v43.83Z"/>
  <path class="b" d="m69.9,35.23c.67-.1,1.05.38,1.15.96l.96,4.01c2.67-3.82,6.78-6.11,12.51-6.11s10.69,3.06,13.46,8.59c2.67-5.35,7.45-8.59,14.23-8.59,9.45,0,16.04,7.83,16.04,20.44v25.3c0,.67-.38,1.05-.95,1.05h-10.5c-.67,0-1.05-.38-1.05-1.05v-22.73c0-6.88-2.48-10.5-7.26-10.5-4.49.1-7.93,3.72-8.02,13.18l.1,20.05c0,.67-.38,1.05-.95,1.05h-10.6c-.57,0-.95-.48-.95-1.05v-22.73c0-6.88-2.48-10.5-7.26-10.5-4.3.1-7.64,3.63-7.93,11.84v21.48c0,.57-.38.96-.96.96h-10.6c-.57,0-.86-.38-.86-.96l-.1-43.73c0-.57.48-.96,1.05-.96h8.5Z"/>
  <path class="b" d="m159.94,70.28c4.3,0,7.54-1.34,9.45-2.96.38-.29.67-.48.96-.48s.48.19.67.38l6.49,6.78c.38.38.48.95.1,1.43-4.2,4.58-10.6,6.4-18.43,6.49-14.42,0-23.97-9.55-23.97-23.78s9.45-23.78,23.59-23.78,23.68,8.31,23.59,27.6c0,.57-.38,1.05-.96.95h-32.94c1.43,4.39,5.25,7.35,11.46,7.35Zm9.36-16.23c-1.15-4.77-4.68-8.02-10.5-8.02s-9.45,3.25-10.6,8.02h21.1Z"/>
  <path class="b" d="m209.02,69.04c1.24,0,2.96-.95,3.63-1.34.19-.1.29-.1.48-.1.38,0,.67.19.86.48l2.96,9.07c.29.67.19,1.24-.29,1.53-2.67,2.1-6.78,3.06-10.12,3.06-8.31,0-13.27-5.92-13.18-15.47v-19.48h-5.63c-.57,0-.96-.38-.96-.86v-9.74c0-.57.38-.96.96-.96h5.63l.1-13.65c0-.57.29-.96.86-.96h10.41c.57,0,.95.38.95.96v13.65h8.59c.57,0,.96.38.96.96v9.74c0,.48-.38.86-.96.86h-8.59v12.32c0,7.64.38,9.93,3.34,9.93Z"/>
  <path class="b" d="m243.68,34.09c14.23,0,23.78,9.64,23.78,23.87s-9.55,23.87-23.78,23.87-23.68-9.64-23.68-23.87,9.55-23.87,23.68-23.87Zm0,35.33c6.88,0,11.36-4.58,11.36-11.46s-4.49-11.46-11.36-11.46-11.27,4.58-11.27,11.46,4.49,11.46,11.27,11.46Z"/>
  <path class="b" d="m309.57,41.06l1.81-4.87c.19-.76.57-.96,1.15-.96h7.35c.57,0,.96.38.96.96l.1,42.87c0,14.8-9.84,24.54-24.35,24.54-8.98-.1-15.37-2.86-18.62-4.87-.57-.29-.76-.86-.48-1.53l4.49-9.17c.19-.29.48-.48.86-.48.19,0,.29,0,.48.1,2.39,1.34,7.26,3.25,12.51,3.53,8.31-.1,12.61-4.97,12.61-12.6v-1.91c-2.87,3.25-7.07,5.25-12.22,5.25-14.32,0-23.4-9.55-23.4-23.78s9.17-23.97,23.01-23.97c6.02,0,10.7,2.48,13.75,6.88Zm-13.08,28.36c7.07,0,11.84-4.58,11.84-11.36s-4.68-11.46-11.84-11.46c-6.78,0-11.27,4.58-11.27,11.46s4.49,11.36,11.27,11.36Z"/>
  <path class="b" d="m337.45,12.6c4.68,0,7.73,3.06,7.73,7.73s-3.06,7.83-7.73,7.83-7.83-3.15-7.83-7.83,3.15-7.73,7.83-7.73Zm6.21,67.32c0,.57-.38.96-.96.96h-10.5c-.57,0-.96-.38-.96-.96v-43.73c0-.57.38-.96,1.05-.96h10.5c.48,0,.86.38.86.86v43.83Z"/>
  <path class="b" d="m380.33,80.02c-.19.57-.76.86-1.34.86h-11.84c-.57,0-1.15-.29-1.34-.86l-16.71-43.54c-.19-.67,0-1.24.86-1.24h11.27c.48,0,.86.29,1.05.76l10.79,30.08,10.69-30.08c.19-.48.57-.76,1.15-.76h11.27c.86,0,1.15.48.86,1.24l-16.71,43.54Z"/>
  <path class="b" d="m424.63,70.28c4.3,0,7.54-1.34,9.45-2.96.38-.29.67-.48.95-.48s.48.19.67.38l6.49,6.78c.38.38.48.95.1,1.43-4.2,4.58-10.6,6.4-18.43,6.49-14.42,0-23.97-9.55-23.97-23.78s9.45-23.78,23.59-23.78,23.68,8.31,23.59,27.6c0,.57-.38,1.05-.96.95h-32.94c1.43,4.39,5.25,7.35,11.46,7.35Zm9.36-16.23c-1.15-4.77-4.68-8.02-10.5-8.02s-9.45,3.25-10.6,8.02h21.1Z"/>
  <path class="b" d="m462.35,67.51c4.2,0,7.07,2.96,7.07,7.26s-2.96,7.07-7.07,7.07-7.07-2.96-7.07-7.07c0-4.39,2.77-7.16,7.07-7.26Z"/>
</svg>