<?xml version="1.0" encoding="UTF-8"?><svg id="Layer_2" xmlns="http://www.w3.org/2000/svg" viewBox="0 0 513.2 513.2"><defs><style>.cls-1{fill:#f6cf56;}.cls-2{fill:#fff;}.cls-3{fill:#1b202b;}.cls-4{fill:#54b2d4;}</style></defs><g id="Layer_1-2"><g><rect class="cls-3" width="513.2" height="513.2"/><g><circle class="cls-4" cx="286.36" cy="113.47" r="43.36"/><circle class="cls-4" cx="286.36" cy="113.47" r="43.36"/><circle class="cls-4" cx="226.84" cy="399.73" r="43.36"/><circle class="cls-4" cx="399.73" cy="286.36" r="43.36"/><circle class="cls-4" cx="399.73" cy="286.36" r="43.36"/><circle class="cls-4" cx="113.47" cy="226.84" r="43.36"/><circle class="cls-4" cx="378.85" cy="176.43" r="43.36"/><circle class="cls-4" cx="378.85" cy="176.43" r="43.36"/><circle class="cls-4" cx="134.35" cy="336.77" r="43.36"/><circle class="cls-4" cx="336.77" cy="378.85" r="43.36"/><circle class="cls-1" cx="336.77" cy="378.85" r="43.36"/><circle class="cls-4" cx="176.43" cy="134.35" r="43.36"/></g><g><path class="cls-2" d="m217.29,273.97c1.39,0,3.33-1.07,4.08-1.51.21-.11.33-.11.54-.11.43,0,.75.21.97.54l3.33,10.2c.33.75.21,1.39-.33,1.72-3,2.36-7.62,3.44-11.38,3.44-9.34,0-14.92-6.66-14.82-17.39v-21.9h-6.34c-.64,0-1.08-.43-1.08-.97v-10.95c0-.64.43-1.08,1.08-1.08h6.33l.11-15.35c0-.64.33-1.08.97-1.08h11.7c.64,0,1.08.43,1.08,1.08v15.35h9.66c.64,0,1.08.43,1.08,1.08v10.95c0,.54-.43.97-1.08.97h-9.66v13.85c0,8.59.43,11.16,3.75,11.16Z"/><path class="cls-2" d="m254.57,273.97c1.39,0,3.33-1.07,4.08-1.51.21-.11.33-.11.54-.11.43,0,.75.21.97.54l3.33,10.2c.33.75.21,1.39-.33,1.72-3,2.36-7.62,3.44-11.38,3.44-9.34,0-14.92-6.66-14.82-17.39v-21.9h-6.33c-.64,0-1.08-.43-1.08-.97v-10.95c0-.64.43-1.08,1.08-1.08h6.33l.11-15.35c0-.64.33-1.08.97-1.08h11.7c.64,0,1.07.43,1.07,1.08v15.35h9.66c.64,0,1.08.43,1.08,1.08v10.95c0,.54-.43.97-1.08.97h-9.66v13.85c0,8.59.43,11.16,3.75,11.16h0Z"/><path class="cls-2" d="m308.15,242.52l2.03-5.47c.21-.85.64-1.08,1.29-1.08h8.26c.64,0,1.08.43,1.08,1.08l.11,48.19c0,16.64-11.06,27.59-27.37,27.59-10.1-.11-17.28-3.22-20.93-5.47-.64-.33-.85-.97-.54-1.72l5.05-10.31c.21-.33.54-.54.97-.54.21,0,.33,0,.54.11,2.69,1.51,8.16,3.65,14.06,3.97,9.34-.11,14.18-5.59,14.18-14.16v-2.15c-3.23,3.65-7.95,5.9-13.74,5.9-16.1,0-26.31-10.74-26.31-26.73s10.31-26.95,25.87-26.95c6.77,0,12.03,2.79,15.46,7.73h-.01Zm-14.7,31.89c7.95,0,13.31-5.15,13.31-12.77s-5.26-12.88-13.31-12.88c-7.62,0-12.67,5.15-12.67,12.88s5.05,12.77,12.67,12.77Z"/></g></g></g></svg>